<svg xmlns="http://www.w3.org/2000/svg" version="1.1" xmlns:xlink="http://www.w3.org/1999/xlink" width="512"
    height="512" x="0" y="0" viewBox="0 0 24 24" style="enable-background:new 0 0 512 512" xml:space="preserve"
    class="">
    <g>
        <path
            d="M22.772 11.125c-.647-.256-1.387-.102-1.945.314l-.982.789a5.516 5.516 0 0 0-2.336-3.326A5.227 5.227 0 0 0 19 5.25 5.256 5.256 0 0 0 13.75 0 5.23 5.23 0 0 0 10 1.587 5.23 5.23 0 0 0 6.25 0 5.256 5.256 0 0 0 1 5.25c0 1.42.572 2.706 1.491 3.652A5.497 5.497 0 0 0 0 13.5v5C0 21.533 2.467 24 5.5 24h9c2.565 0 4.72-1.768 5.325-4.148l1.088.763a1.926 1.926 0 0 0 2.29.016c.525-.374.797-1.015.797-1.66v-6.047c0-.794-.476-1.502-1.228-1.8ZM13.75 3C14.991 3 16 4.009 16 5.25S14.991 7.5 13.75 7.5 11.5 6.491 11.5 5.25 12.509 3 13.75 3Zm-7.5 0C7.491 3 8.5 4.009 8.5 5.25S7.491 7.5 6.25 7.5 4 6.491 4 5.25 5.009 3 6.25 3ZM17 18.5c0 1.378-1.122 2.5-2.5 2.5h-9A2.503 2.503 0 0 1 3 18.5v-5C3 12.122 4.122 11 5.5 11h9c1.378 0 2.5 1.122 2.5 2.5v5Z"
            fill="#000000" opacity="1" data-original="#000000" class=""></path>
    </g>
</svg>